<svg width="21" height="20" viewBox="0 0 21 20" fill="none" xmlns="http://www.w3.org/2000/svg">
<path d="M18.6711 8.368H17.9998V8.33341H10.4998V11.6667H15.2094C14.5223 13.6072 12.6761 15.0001 10.4998 15.0001C7.73859 15.0001 5.49984 12.7613 5.49984 10.0001C5.49984 7.23883 7.73859 5.00008 10.4998 5.00008C11.7744 5.00008 12.934 5.48091 13.8169 6.26633L16.174 3.90925C14.6857 2.52216 12.6948 1.66675 10.4998 1.66675C5.89775 1.66675 2.1665 5.398 2.1665 10.0001C2.1665 14.6022 5.89775 18.3334 10.4998 18.3334C15.1019 18.3334 18.8332 14.6022 18.8332 10.0001C18.8332 9.44133 18.7757 8.89591 18.6711 8.368Z" fill="#FFC107"/>
<path d="M3.12744 6.12133L5.86536 8.12925C6.60619 6.29508 8.40036 5.00008 10.4999 5.00008C11.7745 5.00008 12.9341 5.48091 13.817 6.26633L16.1741 3.90925C14.6858 2.52216 12.6949 1.66675 10.4999 1.66675C7.29911 1.66675 4.52327 3.47383 3.12744 6.12133Z" fill="#FF3D00"/>
<path d="M10.4998 18.3334C12.6523 18.3334 14.6081 17.5096 16.0869 16.17L13.5077 13.9875C12.6429 14.6452 11.5862 15.0009 10.4998 15C8.3323 15 6.49189 13.618 5.79855 11.6892L3.08105 13.783C4.46022 16.4817 7.26105 18.3334 10.4998 18.3334Z" fill="#4CAF50"/>
<path d="M18.6712 8.36784H18V8.33325H10.5V11.6666H15.2096C14.8809 12.5901 14.2889 13.3971 13.5067 13.9878L13.5079 13.987L16.0871 16.1695C15.9046 16.3353 18.8333 14.1666 18.8333 9.99992C18.8333 9.44117 18.7758 8.89575 18.6712 8.36784Z" fill="#1976D2"/>
</svg>
