<svg width="94" height="94" viewBox="0 0 94 94" fill="none" xmlns="http://www.w3.org/2000/svg">
<path d="M72.9091 0H21.6838C10.1057 0 0.719727 9.38594 0.719727 20.9641V72.1893C0.719727 83.7675 10.1057 93.1535 21.6838 93.1535H72.9091C84.4872 93.1535 93.8732 83.7675 93.8732 72.1893V20.9641C93.8732 9.38594 84.4872 0 72.9091 0Z" fill="black"/>
<path d="M76.4148 25.6831H55.7285V67.4742H76.4148V25.6831Z" fill="#00A3DD"/>
<path d="M38.868 25.6831H18.1816V67.4742H38.868V25.6831Z" fill="#0EDF81"/>
<path d="M47.2965 34.1116C42.6409 34.1116 38.868 30.3387 38.868 25.6831H18.1816C18.1816 41.7631 31.2165 54.7979 47.2965 54.7979C63.3764 54.7979 76.4113 41.7631 76.4113 25.6831H55.725C55.725 30.3387 51.952 34.1116 47.2965 34.1116Z" fill="#FCD116"/>
</svg>
