<svg width="121" height="160" viewBox="0 0 121 160" fill="none" xmlns="http://www.w3.org/2000/svg">
<path d="M17.1607 159.742C11.4269 159.742 7.15383 158.777 4.34152 156.852C1.52921 154.927 0.123047 151.992 0.123047 148.056V135.041H7.46327V147.05C7.46327 148.461 7.72266 149.608 8.23688 150.486C8.75111 151.364 9.40185 152.056 10.1937 152.552C10.9855 153.048 11.8228 153.403 12.7147 153.621C13.6066 153.84 14.4485 153.967 15.2449 154.008C16.0413 154.049 16.6784 154.072 17.1562 154.072C17.634 154.072 18.2711 154.049 19.0675 154.008C19.8638 153.967 20.7057 153.835 21.5976 153.621C22.4895 153.407 23.3314 153.048 24.1187 152.552C24.9105 152.056 25.5613 151.369 26.0755 150.486C26.5897 149.608 26.8491 148.461 26.8491 147.05V135.041H34.1893V148.056C34.1893 151.992 32.7832 154.923 29.9708 156.852C27.1585 158.777 22.8855 159.742 17.1562 159.742H17.1607Z" fill="white"/>
<path d="M72.4695 135.041H83.382V159.169H76.0054V141.344L62.7584 159.169H59.0952L45.8482 141.344V159.169H38.4897V135.041H49.384L60.9245 149.835L72.465 135.041H72.4695Z" fill="white"/>
<path d="M107.778 135.041L120.72 159.169H112.534L110.003 154.145H94.8179L92.2877 159.169H84.1011L97.0432 135.041H107.778ZM107.546 149.239L102.413 138.973L97.2616 149.239H107.546Z" fill="white"/>
<path d="M93.4251 0H27.131C12.147 0 0 12.147 0 27.131V93.4251C0 108.409 12.147 120.556 27.131 120.556H93.4251C108.409 120.556 120.556 108.409 120.556 93.4251V27.131C120.556 12.147 108.409 0 93.4251 0Z" fill="black"/>
<path d="M97.962 33.2383H71.1904V87.3229H97.962V33.2383Z" fill="#00A3DD"/>
<path d="M49.3702 33.2383H22.5986V87.3229H49.3702V33.2383Z" fill="#0EDF81"/>
<path d="M60.2781 44.1462C54.253 44.1462 49.3702 39.2634 49.3702 33.2383H22.5986C22.5986 54.0485 39.4679 70.9178 60.2781 70.9178C81.0883 70.9178 97.9576 54.0485 97.9576 33.2383H71.186C71.186 39.2634 66.3032 44.1462 60.2781 44.1462Z" fill="#FCD116"/>
</svg>
